<svg width="185" height="140" viewBox="0 0 185 140" fill="none" xmlns="http://www.w3.org/2000/svg">
<g clip-path="url(#clip0_23035_33219)">
<path d="M92.6661 1.40039C27.941 1.40039 1.16992 45.1754 1.16992 45.1754L92.6661 133.084L184.162 45.1754C184.162 45.1754 157.391 1.40039 92.6661 1.40039Z" fill="url(#paint0_radial_23035_33219)"/>
<path d="M59.4077 101.067H125.792V136.292C125.792 138.334 124.141 140.001 122.1 140.001H63.0911C61.0586 140.001 59.3994 138.342 59.3994 136.292V101.067H59.4077Z" fill="url(#paint1_linear_23035_33219)"/>
<path d="M116.722 126.582L68.6221 126.733L68.6293 129.05L116.729 128.898L116.722 126.582Z" fill="#4653E4"/>
<path d="M116.725 111.782L68.6172 111.934L68.6244 114.25L116.732 114.098L116.725 111.782Z" fill="#4653E4"/>
<path d="M59.4072 101.067H69.827V140H63.0989C61.0581 140 59.4072 138.342 59.4072 136.292V101.059V101.067ZM115.372 101.067V140H122.1C124.141 140 125.792 138.342 125.792 136.292V101.059H115.372V101.067Z" fill="url(#paint2_linear_23035_33219)"/>
<path d="M104.554 106.084H80.6536C78.5872 106.084 76.9121 107.767 76.9121 109.842V131.217C76.9121 133.293 78.5872 134.976 80.6536 134.976H104.554C106.621 134.976 108.296 133.293 108.296 131.217V109.842C108.296 107.767 106.621 106.084 104.554 106.084Z" fill="url(#paint3_linear_23035_33219)"/>
<path d="M89.4721 118.075H86.8838V115.392C86.8838 112.225 89.4472 109.65 92.5997 109.65C95.7522 109.65 98.3156 112.225 98.3156 115.392V118.075H95.7273V115.392C95.7273 113.659 94.3253 112.25 92.5997 112.25C90.8741 112.25 89.4721 113.659 89.4721 115.392V118.075Z" fill="#FFC519"/>
<path d="M98.8303 118.075H86.3697C85.5496 118.075 84.8848 118.743 84.8848 119.567V129.284C84.8848 130.107 85.5496 130.775 86.3697 130.775H98.8303C99.6504 130.775 100.315 130.107 100.315 129.284V119.567C100.315 118.743 99.6504 118.075 98.8303 118.075Z" fill="#FFE65C"/>
<path d="M91.6873 128.542C91.3803 128.542 91.09 128.425 90.8743 128.208L88.3274 125.717C87.8628 125.267 87.8546 124.525 88.3025 124.058C88.7505 123.592 89.4889 123.583 89.9534 124.033L91.6209 125.667L95.3873 121.333C95.8104 120.842 96.5487 120.792 97.0382 121.225C97.5276 121.65 97.5774 122.392 97.146 122.883L92.5667 128.15C92.3593 128.392 92.0523 128.542 91.7371 128.55C91.7205 128.55 91.7039 128.55 91.6873 128.55V128.542Z" fill="#EC5F00"/>
<path d="M43.0054 108.996L5.71304 73.1232C2.77111 70.2933 2.67007 65.6039 5.48733 62.6487L11.5292 56.311L59.4749 102.432L53.4329 108.769C50.6157 111.725 45.9473 111.826 43.0054 108.996Z" fill="url(#paint4_linear_23035_33219)"/>
<path d="M12.293 68.6909L10.7031 70.3691L45.5534 103.683L47.1432 102.005L12.293 68.6909Z" fill="#4653E4"/>
<path d="M43.0066 109L40.8082 106.883L51.9497 95.1997L59.4741 102.441L53.4347 108.775C50.614 111.733 45.9517 111.833 43.0066 109ZM5.71626 73.1247L7.91469 75.2414L19.0562 63.5581L11.5317 56.3164L5.49227 62.6497C2.67164 65.6081 2.7712 70.2914 5.71626 73.1247Z" fill="url(#paint5_linear_23035_33219)"/>
<path d="M13.1166 54.6497L61.0589 100.775C61.5152 101.216 61.5318 101.95 61.0921 102.408C60.6524 102.866 59.9224 102.883 59.4661 102.441L11.5237 56.3247C11.0675 55.883 11.0509 55.1497 11.4906 54.6913C11.9302 54.233 12.6603 54.2163 13.1166 54.658V54.6497Z" fill="#4653E4"/>
<path d="M72.3956 43.4746C80.1092 32.5958 77.5828 17.4955 66.7528 9.74722C55.9228 1.99889 40.8902 4.53665 33.1766 15.4155C25.4631 26.2943 27.9894 41.3945 38.8195 49.1429C49.6495 56.8912 64.682 54.3534 72.3956 43.4746Z" fill="url(#paint6_linear_23035_33219)"/>
<path opacity="0.5" d="M55.4247 29.8506C57.283 28.0756 57.9798 25.2756 56.9428 22.7506C55.5989 19.4756 51.8574 17.9173 48.5971 19.2673C45.3368 20.6173 43.7854 24.3756 45.1294 27.6506C46.1498 30.1256 48.539 31.6173 51.0527 31.609C47.4025 34.3423 45.3368 39.6923 47.0126 43.759L66.9312 35.4923C65.272 31.459 59.9543 29.234 55.4247 29.8423V29.8506Z" fill="white"/>
<path d="M47.8505 2.00869L48.3316 3.35036H46.913C46.913 3.35036 46.3157 5.47536 47.9915 6.65036C50.1153 8.14203 53.8899 7.25036 53.8899 7.25036C53.8899 7.25036 53.4337 3.38369 51.3099 1.89203C49.6341 0.717028 47.8505 2.00036 47.8505 2.00036V2.00869Z" fill="url(#paint7_linear_23035_33219)"/>
<path d="M80.7945 25.0998L79.8488 23.7665L81.4167 23.3165C81.4167 23.3165 81.4167 20.7832 79.2017 20.0082C76.3976 19.0248 72.5068 21.1998 72.5068 21.1998C72.5068 21.1998 74.2158 25.3165 77.0198 26.2998C79.2266 27.0748 80.7945 25.0915 80.7945 25.0915V25.0998Z" fill="url(#paint8_linear_23035_33219)"/>
<path d="M50.0413 46.7417L50.0662 45.0168C50.0662 45.0168 47.5276 44.2501 46.0758 46.2584C45.6361 46.8667 45.3624 47.6001 45.1881 48.3584C45.0056 47.6084 44.707 46.8751 44.2507 46.2751C42.7574 44.3001 40.2354 45.1251 40.2354 45.1251L40.3018 46.8501L38.6675 46.3251C38.6675 46.3251 37.2074 48.5417 38.7007 50.5167C39.157 51.1251 39.7792 51.6001 40.4594 51.9834C39.6879 51.9418 38.9164 52.0168 38.2112 52.2834C35.905 53.1501 35.963 55.8168 35.963 55.8168L37.6222 56.2501L36.6516 57.6751C36.6516 57.6751 38.3523 59.7251 40.6585 58.8501C41.2724 58.6168 41.8283 58.2501 42.326 57.8001C42.0854 58.3918 41.9278 59.0084 41.9112 59.6334C41.8449 62.1084 44.3171 63.0584 44.3171 63.0584L45.3458 61.6751L46.2915 63.1084C46.2915 63.1084 48.8218 62.3001 48.8881 59.8251C48.913 59.0501 48.7222 58.2668 48.4153 57.5334C49.0458 58.0168 49.7426 58.4084 50.4976 58.5917C52.8951 59.1834 54.3386 56.9418 54.3386 56.9418L53.2103 55.6417L54.8115 55.0167C54.8115 55.0167 54.5543 52.3668 52.165 51.7751C51.5594 51.6251 50.9206 51.6167 50.2902 51.6917C50.846 51.3251 51.352 50.8834 51.7337 50.3584C53.1772 48.3501 51.6673 46.1668 51.6673 46.1668L50.0413 46.7251V46.7417Z" fill="url(#paint9_radial_23035_33219)"/>
<path d="M44.8232 52.5669L45.0721 50.3585C45.097 50.1335 45.4206 50.1252 45.4537 50.3502L45.8188 52.5419C45.8354 52.6502 45.9432 52.7252 46.0511 52.7002L48.2163 52.2585C48.4403 52.2169 48.5398 52.5169 48.3407 52.6252L46.3746 53.6502C46.275 53.7002 46.2419 53.8252 46.2916 53.9169L47.3784 55.8502C47.4863 56.0502 47.2374 56.2419 47.0715 56.0835L45.4952 54.5252C45.4206 54.4502 45.2878 54.4502 45.2132 54.5252L43.7199 56.1585C43.5706 56.3252 43.3051 56.1419 43.4046 55.9419L44.3919 53.9585C44.4416 53.8585 44.3919 53.7419 44.3006 53.6919L42.293 52.7669C42.0856 52.6752 42.1768 52.3669 42.4008 52.4002L44.5827 52.7335C44.6905 52.7502 44.7901 52.6752 44.8067 52.5669H44.8232Z" fill="#FFABD3"/>
<path d="M40.4924 17.7836L41.5211 15.9586C41.5211 15.9586 39.2563 13.6503 36.5352 14.9419C35.7056 15.3336 34.9839 15.9586 34.37 16.6669C34.6105 15.7503 34.7184 14.8003 34.5857 13.8919C34.1377 10.9086 30.9686 10.3086 30.9686 10.3086L30.0312 12.1836L28.5877 10.6669C28.5877 10.6669 25.7256 12.1753 26.1736 15.1586C26.3063 16.0753 26.6962 16.9503 27.194 17.7503C26.3975 17.2586 25.5265 16.8753 24.6139 16.7503C21.644 16.3253 20.159 19.2003 20.159 19.2003L21.6771 20.6419L19.8105 21.5919C19.8105 21.5919 20.4327 24.7753 23.4027 25.2086C24.1908 25.3253 24.9955 25.2503 25.7919 25.0669C25.1946 25.5586 24.6637 26.1253 24.2821 26.7836C22.7639 29.3836 24.8628 31.8586 24.8628 31.8586L26.7626 30.9836L26.9368 33.0753C26.9368 33.0753 30.1058 33.7003 31.624 31.1003C32.0969 30.2836 32.354 29.3336 32.4619 28.3753C32.8518 29.2669 33.3662 30.0919 34.063 30.7336C36.278 32.7669 39.1236 31.2336 39.1236 31.2336L38.6756 29.1836L40.7496 29.4503C40.7496 29.4503 42.0271 26.4669 39.8038 24.4336C39.248 23.9169 38.5677 23.5336 37.8543 23.2419C38.6673 23.1836 39.4637 23.0086 40.1771 22.6669C42.8899 21.3753 42.5498 18.1503 42.5498 18.1503L40.4924 17.7919V17.7836Z" fill="url(#paint10_radial_23035_33219)"/>
<path d="M31.5249 20.9339L33.0762 18.7255C33.2338 18.5005 33.5823 18.6839 33.491 18.9422L32.6033 21.4922C32.5618 21.6172 32.6282 21.7589 32.7527 21.8005L35.3244 22.6005C35.5899 22.6839 35.5235 23.0672 35.2497 23.0672L32.5536 23.0089C32.4208 23.0089 32.313 23.1172 32.313 23.2505L32.3462 25.9589C32.3462 26.2339 31.9645 26.2922 31.8816 26.0339L31.1101 23.4422C31.0686 23.3172 30.9358 23.2422 30.8114 23.2839L28.2645 24.1505C28.0074 24.2422 27.8331 23.8839 28.0571 23.7339L30.2722 22.1922C30.38 22.1172 30.4049 21.9589 30.3302 21.8589L28.7208 19.6922C28.5549 19.4755 28.837 19.1922 29.0527 19.3589L31.193 21.0005C31.3009 21.0839 31.4502 21.0589 31.5249 20.9505V20.9339Z" fill="#FFABD3"/>
<path d="M24.9786 45.1173L26.6461 44.6756L26.4967 46.4006C26.4967 46.4006 28.9938 47.3589 30.5866 45.4506C32.6109 43.0339 31.9389 38.3506 31.9389 38.3506C31.9389 38.3506 27.2351 38.4923 25.2109 40.9006C23.6097 42.8089 24.9786 45.1089 24.9786 45.1089V45.1173Z" fill="url(#paint11_linear_23035_33219)"/>
<path d="M71.2035 4.49193L71.4441 2.96693C71.4441 2.96693 69.2954 1.9586 67.7524 3.54193C67.2795 4.02527 66.9394 4.64194 66.6988 5.2836C66.6324 4.59194 66.4665 3.9086 66.143 3.31693C65.0728 1.37527 62.7333 1.77527 62.7333 1.77527L62.5674 3.3086L61.182 2.6336C61.182 2.6336 59.5974 4.4086 60.6676 6.35027C60.9912 6.94194 61.4806 7.45027 62.0365 7.87527C61.3562 7.74193 60.6593 7.70027 60.004 7.85027C57.847 8.31694 57.5566 10.6836 57.5566 10.6836L58.9752 11.2836L57.93 12.4169C57.93 12.4169 59.1661 14.4503 61.3313 13.9836C61.9037 13.8586 62.443 13.6003 62.9407 13.2753C62.6504 13.7669 62.4347 14.3003 62.3351 14.8503C61.9535 17.0336 64.0275 18.2003 64.0275 18.2003L65.1143 17.1086L65.7696 18.5086C65.7696 18.5086 68.1174 18.1253 68.499 15.9419C68.6152 15.2586 68.5488 14.5419 68.3829 13.8503C68.8723 14.3586 69.4448 14.8003 70.0836 15.0669C72.1327 15.9003 73.7006 14.1086 73.7006 14.1086L72.871 12.8086L74.3726 12.4586C74.3726 12.4586 74.4887 10.0753 72.4479 9.24194C71.9336 9.0336 71.3694 8.94194 70.797 8.91693C71.3362 8.66693 71.8423 8.34194 72.2488 7.92527C73.7918 6.3336 72.73 4.20027 72.73 4.20027L71.2201 4.4836L71.2035 4.49193Z" fill="url(#paint12_radial_23035_33219)"/>
<path d="M65.8278 8.96742L66.3338 7.04242C66.3836 6.85075 66.674 6.88409 66.674 7.08409L66.7072 9.07575C66.7072 9.17575 66.7901 9.25075 66.8897 9.25075L68.8641 9.14242C69.0632 9.13409 69.1213 9.41742 68.9305 9.48409L67.0556 10.1341C66.9643 10.1674 66.9145 10.2674 66.9477 10.3591L67.6612 12.2174C67.7358 12.4091 67.4787 12.5508 67.3625 12.3841L66.1679 10.8008C66.1098 10.7258 65.9937 10.7091 65.919 10.7674L64.3843 12.0174C64.2267 12.1424 64.0193 11.9508 64.1354 11.7841L65.2719 10.1508C65.33 10.0674 65.3051 9.95909 65.2222 9.90075L63.563 8.81742C63.3971 8.70909 63.5132 8.44242 63.704 8.50075L65.5955 9.08409C65.6867 9.10909 65.7863 9.05909 65.8112 8.95909L65.8278 8.96742Z" fill="#FFABD3"/>
<path d="M166.112 32.785C167.439 19.4957 157.79 7.64153 144.561 6.30804C131.331 4.97456 119.53 14.6667 118.202 27.9561C116.875 41.2454 126.524 53.0996 139.753 54.433C152.983 55.7665 164.784 46.0744 166.112 32.785Z" fill="url(#paint13_linear_23035_33219)"/>
<path opacity="0.5" d="M144.026 32.2991C146.581 32.0241 148.821 30.2241 149.518 27.5825C150.422 24.1575 148.39 20.6408 144.98 19.7325C141.57 18.8241 138.069 20.8658 137.165 24.2908C136.477 26.8825 137.48 29.5241 139.48 31.0491C134.925 30.9991 130.056 33.9991 128.936 38.2491L149.767 43.8075C150.878 39.5908 148 34.5825 144.026 32.3075V32.2991Z" fill="white"/>
<path opacity="0.3" d="M121.852 36.3519C127.478 34.3586 130.429 28.1616 128.445 22.5105C126.461 16.8595 120.291 13.8944 114.666 15.8878C109.04 17.8811 106.088 24.0781 108.073 29.7291C110.057 35.3802 116.226 38.3453 121.852 36.3519Z" fill="#FFE65C"/>
<path opacity="0.3" d="M164.806 57.0127C167.596 52.6538 166.34 46.8481 162 44.0454C157.661 41.2426 151.881 42.5042 149.091 46.8632C146.301 51.2222 147.557 57.0279 151.896 59.8306C156.236 62.6333 162.015 61.3717 164.806 57.0127Z" fill="#FFE65C"/>
<path opacity="0.3" d="M155.514 17.2937C160.256 16.7854 163.691 12.5113 163.185 7.74729C162.679 2.98325 158.424 -0.466709 153.681 0.0415785C148.938 0.549866 145.504 4.82392 146.01 9.58796C146.516 14.352 150.771 17.8019 155.514 17.2937Z" fill="#FFE65C"/>
<path d="M131.64 55.1496C130.528 55.1496 129.449 54.933 128.462 54.358C125.957 52.9163 125.169 49.7747 124.414 46.733C123.966 44.9496 123.51 43.0996 122.713 41.7246C121.917 40.3496 120.548 39.033 119.229 37.758C116.981 35.5913 114.649 33.3496 114.649 30.4413C114.649 27.433 117.014 25.1496 119.303 22.9413C120.647 21.6413 121.925 20.4163 122.663 19.1246C123.36 17.8996 123.75 16.233 124.157 14.4663C124.887 11.3163 125.642 8.04964 128.354 6.47464C131.067 4.89131 134.253 5.84964 137.347 6.77464C139.073 7.29131 140.707 7.78298 142.109 7.78298H142.117C143.602 7.78298 145.295 7.28298 147.087 6.74964C150.131 5.84131 153.275 4.90798 155.88 6.40798C158.386 7.84964 159.174 10.9913 159.929 14.033C160.377 15.8163 160.833 17.6663 161.629 19.0413C162.426 20.4163 163.795 21.733 165.114 23.008C167.362 25.1746 169.693 27.4163 169.701 30.3246C169.701 33.333 167.337 35.6163 165.047 37.8246C163.703 39.1246 162.426 40.3496 161.688 41.6413C160.991 42.8663 160.601 44.533 160.194 46.2996C159.464 49.4496 158.709 52.708 155.996 54.2913C153.284 55.8746 150.09 54.9163 147.004 53.9913C145.278 53.4746 143.644 52.983 142.242 52.983C140.757 52.983 139.064 53.483 137.273 54.0163C135.389 54.5746 133.465 55.1496 131.656 55.1496H131.64ZM131.698 7.51631C130.827 7.51631 130.005 7.68298 129.292 8.09964C127.276 9.27464 126.62 12.133 125.973 14.8913C125.55 16.708 125.111 18.5913 124.281 20.058C123.41 21.5913 121.975 22.9663 120.598 24.2996C118.499 26.3246 116.516 28.233 116.516 30.4413C116.516 32.5413 118.466 34.4163 120.523 36.408C121.942 37.7746 123.402 39.183 124.331 40.7913C125.26 42.3913 125.749 44.3746 126.231 46.283C126.927 49.0663 127.583 51.6913 129.4 52.733C131.308 53.833 133.946 53.0496 136.733 52.2163C138.567 51.6746 140.466 51.108 142.225 51.108H142.233C143.909 51.108 145.751 51.658 147.535 52.1913C150.239 52.9996 153.043 53.8413 155.051 52.6663C157.067 51.4913 157.722 48.633 158.369 45.8746C158.792 44.0496 159.232 42.1746 160.062 40.708C160.933 39.1746 162.368 37.7996 163.745 36.4663C165.844 34.4413 167.827 32.533 167.827 30.3246C167.827 28.2246 165.877 26.3496 163.82 24.358C162.401 22.9913 160.941 21.583 160.012 19.9746C159.083 18.3746 158.593 16.3913 158.112 14.4746C157.415 11.6913 156.76 9.06631 154.943 8.02464C153.035 6.92464 150.397 7.70798 147.609 8.54131C145.776 9.08298 143.876 9.64964 142.117 9.64964H142.109C140.433 9.64964 138.592 9.09964 136.808 8.56631C135.066 8.04131 133.282 7.50798 131.698 7.50798V7.51631Z" fill="url(#paint14_linear_23035_33219)"/>
<path d="M118.441 28.5493C120.397 28.5493 121.983 26.9562 121.983 24.991C121.983 23.0257 120.397 21.4326 118.441 21.4326C116.484 21.4326 114.898 23.0257 114.898 24.991C114.898 26.9562 116.484 28.5493 118.441 28.5493Z" fill="#FFE65C"/>
<path d="M137.572 56.7251C139.528 56.7251 141.114 55.1319 141.114 53.1667C141.114 51.2015 139.528 49.6084 137.572 49.6084C135.615 49.6084 134.029 51.2015 134.029 53.1667C134.029 55.1319 135.615 56.7251 137.572 56.7251Z" fill="#FFE65C"/>
<path d="M159.041 19.2085C160.998 19.2085 162.584 17.6153 162.584 15.6501C162.584 13.6849 160.998 12.0918 159.041 12.0918C157.085 12.0918 155.499 13.6849 155.499 15.6501C155.499 17.6153 157.085 19.2085 159.041 19.2085Z" fill="#FFE65C"/>
<path d="M159.597 52.7749C161.553 52.7749 163.139 51.1817 163.139 49.2165C163.139 47.2513 161.553 45.6582 159.597 45.6582C157.641 45.6582 156.055 47.2513 156.055 49.2165C156.055 51.1817 157.641 52.7749 159.597 52.7749Z" fill="#FFE65C"/>
<path d="M137.406 9.80807C139.362 9.80807 140.948 8.21495 140.948 6.24974C140.948 4.28453 139.362 2.69141 137.406 2.69141C135.449 2.69141 133.863 4.28453 133.863 6.24974C133.863 8.21495 135.449 9.80807 137.406 9.80807Z" fill="#FFE65C"/>
<path d="M169.6 18.7104C170.638 18.6528 171.434 17.7605 171.376 16.7173C171.319 15.6742 170.431 14.8752 169.392 14.9328C168.354 14.9904 167.558 15.8827 167.616 16.9259C167.673 17.9691 168.561 18.768 169.6 18.7104Z" fill="#FF78B8"/>
<path d="M170.308 45.0743C171.52 45.0071 172.448 43.9654 172.381 42.7476C172.315 41.5299 171.278 40.5972 170.065 40.6644C168.853 40.7316 167.924 41.7733 167.991 42.9911C168.058 44.2089 169.095 45.1416 170.308 45.0743Z" fill="#FF78B8"/>
<path d="M119.208 12.8859C120.42 12.8186 121.349 11.7769 121.282 10.5592C121.215 9.34139 120.178 8.40869 118.966 8.47592C117.753 8.54315 116.825 9.58486 116.892 10.8026C116.959 12.0204 117.996 12.9531 119.208 12.8859Z" fill="#FF78B8"/>
<path d="M120.098 51.8029C121.31 51.7356 122.238 50.6939 122.172 49.4762C122.105 48.2584 121.068 47.3257 119.855 47.3929C118.643 47.4601 117.714 48.5018 117.781 49.7196C117.848 50.9374 118.885 51.8701 120.098 51.8029Z" fill="#FF78B8"/>
<path d="M146.891 59.9773C146.906 59.2042 146.295 58.5653 145.525 58.5502C144.756 58.5351 144.119 59.1495 144.104 59.9225C144.089 60.6956 144.701 61.3345 145.471 61.3496C146.24 61.3647 146.876 60.7503 146.891 59.9773Z" fill="#FFC519"/>
<path d="M160.427 27.1882C160.442 26.4151 159.831 25.7762 159.061 25.7611C158.292 25.746 157.656 26.3604 157.641 27.1335C157.625 27.9065 158.237 28.5455 159.007 28.5606C159.776 28.5757 160.412 27.9612 160.427 27.1882Z" fill="#FFC519"/>
<path d="M146.497 1.84054C146.512 1.06749 145.9 0.428559 145.131 0.413446C144.361 0.398333 143.725 1.01276 143.71 1.78581C143.695 2.55886 144.306 3.1978 145.076 3.21291C145.846 3.22803 146.482 2.61359 146.497 1.84054Z" fill="#FFC519"/>
<path d="M125.515 31.2019C125.53 30.4288 124.919 29.7899 124.149 29.7748C123.38 29.7597 122.743 30.3741 122.728 31.1471C122.713 31.9202 123.325 32.5591 124.095 32.5742C124.864 32.5894 125.5 31.9749 125.515 31.2019Z" fill="#FFC519"/>
<path d="M90.0114 89.1167C103.308 89.1167 114.086 78.2894 114.086 64.9333C114.086 51.5772 103.308 40.75 90.0114 40.75C76.7152 40.75 65.9365 51.5772 65.9365 64.9333C65.9365 78.2894 76.7152 89.1167 90.0114 89.1167Z" fill="url(#paint15_linear_23035_33219)"/>
<path opacity="0.5" d="M92.4011 66.108C94.7074 64.983 96.2172 62.5247 95.9849 59.808C95.6863 56.2747 92.5919 53.658 89.0827 53.958C85.5652 54.258 82.9603 57.358 83.2589 60.8913C83.4829 63.5663 85.308 65.708 87.7056 66.4663C83.4 67.958 79.8244 72.4413 80.1977 76.8163L101.676 74.9913C101.311 70.6413 96.9141 66.8997 92.4094 66.108H92.4011Z" fill="white"/>
<path d="M103.185 42.2587C101.957 41.617 101.941 39.8587 103.152 39.1837L109.44 35.7003C93.8188 34.092 83.3659 38.1087 77.0693 42.1253C75.8912 42.8753 74.3565 42.0253 74.3814 40.6253L74.5224 33.417C65.3139 46.217 63.5551 57.3253 63.8704 64.8087C63.9285 66.2003 62.4186 67.092 61.2323 66.3753L55.085 62.6503C61.5143 77.0587 70.2168 84.142 76.8287 87.617C78.0565 88.2587 78.0731 90.017 76.8619 90.692L70.5735 94.1753C86.1948 95.7837 96.6477 91.767 102.944 87.7587C104.122 87.0087 105.657 87.8587 105.632 89.2587L105.491 96.467C114.7 83.667 116.459 72.5587 116.143 65.0753C116.085 63.6837 117.595 62.792 118.781 63.5087L124.929 67.2337C118.499 52.8253 109.797 45.742 103.185 42.267V42.2587ZM91.8942 87.2837C79.6078 88.3253 68.7982 79.167 67.7612 66.8253C66.7242 54.4837 75.8415 43.6253 88.1278 42.5837C100.414 41.542 111.224 50.7003 112.261 63.042C113.298 75.3837 104.18 86.242 91.8942 87.2837Z" fill="url(#paint16_linear_23035_33219)"/>
<path d="M66.0107 44.4502C71.7764 53.0085 72.9793 53.3752 82.528 49.5335C74.008 55.3252 73.643 56.5335 77.4675 66.1252C71.7018 57.5669 70.4988 57.2002 60.9502 61.0419C69.4702 55.2502 69.8352 54.0419 66.0107 44.4502Z" fill="#57F186"/>
<path d="M81.217 79.875C85.3649 84.3 86.1033 84.4083 91.2883 81.2833C86.8831 85.4417 86.7753 86.1833 89.8945 91.3917C85.7466 86.9667 85.0082 86.8583 79.8232 89.9833C84.2284 85.825 84.3362 85.0833 81.217 79.875Z" fill="#57F186"/>
<path d="M98.3486 57.2337C102.173 58.5503 102.638 58.3837 104.728 54.917C103.417 58.7587 103.583 59.2253 107.043 61.3253C103.218 60.0087 102.754 60.1753 100.663 63.642C101.974 59.8003 101.808 59.3337 98.3486 57.2337Z" fill="#57F186"/>
<path d="M89.9699 87.8841C84.5941 87.8841 79.434 86.0008 75.2778 82.4758C70.6154 78.5258 67.7616 72.9841 67.2473 66.8758C66.7329 60.7674 68.6161 54.8258 72.5484 50.1424C76.4807 45.4591 81.9975 42.5924 88.0784 42.0758C94.1594 41.5591 100.074 43.4508 104.737 47.4008C109.399 51.3508 112.253 56.8924 112.767 63.0008C113.282 69.1091 111.398 75.0508 107.466 79.7341C103.534 84.4174 98.017 87.2841 91.936 87.8008C91.2807 87.8591 90.6253 87.8841 89.9699 87.8841ZM90.0446 43.8674C89.4473 43.8674 88.8417 43.8924 88.236 43.9424C82.6529 44.4174 77.5923 47.0508 73.9753 51.3508C70.3665 55.6508 68.6327 61.1091 69.1056 66.7174C69.5784 72.3258 72.2 77.4091 76.4807 81.0424C80.7614 84.6674 86.1869 86.4091 91.7784 85.9341C97.3616 85.4591 102.422 82.8258 106.039 78.5258C109.648 74.2258 111.382 68.7674 110.909 63.1591C110.436 57.5508 107.815 52.4674 103.534 48.8341C99.7177 45.6008 94.9807 43.8674 90.0446 43.8674Z" fill="#57F186"/>
<path d="M19.4871 115.642C17.4048 114.292 16.0028 112.117 15.6377 109.65L15.0155 105.467C14.9824 105.258 14.8081 105.108 14.6007 105.108C14.3933 105.108 14.2191 105.258 14.1859 105.467L13.5637 109.65C13.1987 112.108 11.7967 114.292 9.71442 115.642L9.17518 115.992C9.05904 116.067 8.98438 116.2 8.98438 116.342V116.367C8.98438 116.508 9.05904 116.642 9.17518 116.717L9.71442 117.067C11.7967 118.417 13.1987 120.592 13.5637 123.058L14.1859 127.242C14.2191 127.45 14.3933 127.6 14.6007 127.6C14.8081 127.6 14.9824 127.45 15.0155 127.242L15.6377 123.058C16.0028 120.6 17.4048 118.417 19.4871 117.067L20.0263 116.717C20.1424 116.642 20.2171 116.508 20.2171 116.367V116.342C20.2171 116.2 20.1424 116.067 20.0263 115.992L19.4871 115.642Z" fill="#57F186"/>
<path d="M6.62896 28.5997C5.3182 27.7497 4.43053 26.3747 4.19824 24.8247L3.80833 22.183C3.79174 22.0497 3.6756 21.958 3.54286 21.958C3.41012 21.958 3.30228 22.058 3.27739 22.183L2.88748 24.8247C2.65519 26.3747 1.76752 27.7497 0.456761 28.5997L0.116627 28.8163C0.0419633 28.8663 -0.0078125 28.9497 -0.0078125 29.0413V29.058C-0.0078125 29.1497 0.0419633 29.233 0.116627 29.283L0.456761 29.4997C1.76752 30.3497 2.65519 31.7247 2.88748 33.2747L3.27739 35.9163C3.29398 36.0497 3.41012 36.1413 3.54286 36.1413C3.6756 36.1413 3.78344 36.0413 3.80833 35.9163L4.19824 33.2747C4.43053 31.7247 5.3182 30.3497 6.62896 29.4997L6.96909 29.283C7.04376 29.233 7.09353 29.1497 7.09353 29.058V29.0413C7.09353 28.9497 7.04376 28.8663 6.96909 28.8163L6.62896 28.5997Z" fill="#FFE65C"/>
<path d="M166.716 110.25C165.33 109.35 164.393 107.9 164.152 106.258L163.737 103.466C163.721 103.333 163.596 103.225 163.464 103.225C163.323 103.225 163.206 103.325 163.19 103.466L162.775 106.258C162.535 107.9 161.597 109.35 160.212 110.25L159.855 110.483C159.772 110.533 159.73 110.625 159.73 110.716V110.733C159.73 110.825 159.78 110.916 159.855 110.966L160.212 111.2C161.597 112.1 162.535 113.55 162.775 115.191L163.19 117.983C163.206 118.116 163.331 118.225 163.464 118.225C163.605 118.225 163.721 118.125 163.737 117.983L164.152 115.191C164.393 113.55 165.33 112.1 166.716 111.2L167.072 110.966C167.155 110.916 167.197 110.825 167.197 110.733V110.716C167.197 110.625 167.147 110.533 167.072 110.483L166.716 110.25Z" fill="#8BD8FF"/>
<path d="M182.653 86.5586C180.106 84.9086 178.397 82.2419 177.949 79.2419L177.186 74.1253C177.144 73.8753 176.937 73.6836 176.68 73.6836C176.422 73.6836 176.207 73.8669 176.174 74.1253L175.41 79.2419C174.962 82.2503 173.245 84.9169 170.707 86.5586L170.043 86.9836C169.894 87.0753 169.811 87.2419 169.811 87.4169V87.4503C169.811 87.6253 169.902 87.7919 170.043 87.8836L170.707 88.3086C173.253 89.9586 174.962 92.6253 175.41 95.6253L176.174 100.742C176.215 100.992 176.422 101.184 176.68 101.184C176.937 101.184 177.152 101 177.186 100.742L177.949 95.6253C178.397 92.6169 180.114 89.9503 182.653 88.3086L183.316 87.8836C183.466 87.7919 183.549 87.6253 183.549 87.4503V87.4169C183.549 87.2419 183.457 87.0753 183.316 86.9836L182.653 86.5586Z" fill="#FF78B8"/>
</g>
<defs>
<radialGradient id="paint0_radial_23035_33219" cx="0" cy="0" r="1" gradientUnits="userSpaceOnUse" gradientTransform="translate(93.1116 132.505) rotate(-89.9801) scale(131.2 122.448)">
<stop stop-color="#FFE65C" stop-opacity="0.4"/>
<stop offset="0.1" stop-color="#FFE254" stop-opacity="0.35"/>
<stop offset="0.68" stop-color="#FFCD29" stop-opacity="0.1"/>
<stop offset="0.95" stop-color="#FFC519" stop-opacity="0"/>
</radialGradient>
<linearGradient id="paint1_linear_23035_33219" x1="92.6082" y1="101.851" x2="92.6082" y2="158.117" gradientUnits="userSpaceOnUse">
<stop stop-color="#5865F1"/>
<stop offset="0.47" stop-color="#5360ED"/>
<stop offset="1" stop-color="#4653E4"/>
</linearGradient>
<linearGradient id="paint2_linear_23035_33219" x1="92.6077" y1="139.667" x2="92.6077" y2="101.434" gradientUnits="userSpaceOnUse">
<stop stop-color="#6C78F8"/>
<stop offset="0.08" stop-color="#6E7AF8"/>
<stop offset="0.55" stop-color="#7B85FD"/>
<stop offset="1" stop-color="#8089FF"/>
</linearGradient>
<linearGradient id="paint3_linear_23035_33219" x1="92.6081" y1="96.3257" x2="92.6081" y2="134.326" gradientUnits="userSpaceOnUse">
<stop offset="0.11" stop-color="#6C78F8"/>
<stop offset="0.75" stop-color="#7983FC"/>
<stop offset="1" stop-color="#8089FF"/>
</linearGradient>
<linearGradient id="paint4_linear_23035_33219" x1="24.342" y1="91.0778" x2="64.1532" y2="49.6914" gradientUnits="userSpaceOnUse">
<stop stop-color="#5865F1"/>
<stop offset="0.47" stop-color="#5360ED"/>
<stop offset="1" stop-color="#4653E4"/>
</linearGradient>
<linearGradient id="paint5_linear_23035_33219" x1="35.9735" y1="78.8365" x2="24.6414" y2="90.7772" gradientUnits="userSpaceOnUse">
<stop stop-color="#6C78F8"/>
<stop offset="0.08" stop-color="#6E7AF8"/>
<stop offset="0.55" stop-color="#7B85FD"/>
<stop offset="1" stop-color="#8089FF"/>
</linearGradient>
<linearGradient id="paint6_linear_23035_33219" x1="63.4707" y1="51.8625" x2="42.562" y2="8.38568" gradientUnits="userSpaceOnUse">
<stop stop-color="#6C78F8"/>
<stop offset="0.08" stop-color="#6E7AF8"/>
<stop offset="0.55" stop-color="#7B85FD"/>
<stop offset="1" stop-color="#8089FF"/>
</linearGradient>
<linearGradient id="paint7_linear_23035_33219" x1="46.6724" y1="2.08369" x2="59.2552" y2="11.2465" gradientUnits="userSpaceOnUse">
<stop stop-color="#FFABD3"/>
<stop offset="0.5" stop-color="#FF8CC2"/>
<stop offset="0.91" stop-color="#FF78B8"/>
<stop offset="1" stop-color="#FF78B8"/>
</linearGradient>
<linearGradient id="paint8_linear_23035_33219" x1="81.2361" y1="24.3276" x2="66.0763" y2="18.6743" gradientUnits="userSpaceOnUse">
<stop stop-color="#FFABD3"/>
<stop offset="0.5" stop-color="#FF8CC2"/>
<stop offset="0.91" stop-color="#FF78B8"/>
<stop offset="1" stop-color="#FF78B8"/>
</linearGradient>
<radialGradient id="paint9_radial_23035_33219" cx="0" cy="0" r="1" gradientUnits="userSpaceOnUse" gradientTransform="translate(41.7396 52.2098) rotate(-50.4265) scale(9.37659 9.36875)">
<stop offset="0.11" stop-color="#FF78B8"/>
<stop offset="1" stop-color="#FFABD3"/>
</radialGradient>
<radialGradient id="paint10_radial_23035_33219" cx="0" cy="0" r="1" gradientUnits="userSpaceOnUse" gradientTransform="translate(26.6309 20.2056) rotate(-21.6582) scale(11.4367 11.4742)">
<stop offset="0.11" stop-color="#FF78B8"/>
<stop offset="1" stop-color="#FFABD3"/>
</radialGradient>
<linearGradient id="paint11_linear_23035_33219" x1="25.7335" y1="46.3923" x2="34.2641" y2="33.9446" gradientUnits="userSpaceOnUse">
<stop stop-color="#FFABD3"/>
<stop offset="0.5" stop-color="#FF8CC2"/>
<stop offset="0.91" stop-color="#FF78B8"/>
<stop offset="1" stop-color="#FF78B8"/>
</linearGradient>
<radialGradient id="paint12_radial_23035_33219" cx="0" cy="0" r="1" gradientUnits="userSpaceOnUse" gradientTransform="translate(69.9571 11.0774) rotate(-42.068) scale(8.3293 8.33321)">
<stop offset="0.11" stop-color="#FF78B8"/>
<stop offset="1" stop-color="#FFABD3"/>
</radialGradient>
<linearGradient id="paint13_linear_23035_33219" x1="132.859" y1="52.4359" x2="150.965" y2="9.86933" gradientUnits="userSpaceOnUse">
<stop stop-color="#6C78F8"/>
<stop offset="0.08" stop-color="#6E7AF8"/>
<stop offset="0.55" stop-color="#7B85FD"/>
<stop offset="1" stop-color="#8089FF"/>
</linearGradient>
<linearGradient id="paint14_linear_23035_33219" x1="114.633" y1="30.3746" x2="169.693" y2="30.3746" gradientUnits="userSpaceOnUse">
<stop stop-color="#FFE65C"/>
<stop offset="0.33" stop-color="#FFC519"/>
<stop offset="1" stop-color="#FFC519"/>
</linearGradient>
<linearGradient id="paint15_linear_23035_33219" x1="91.7867" y1="88.9083" x2="88.3465" y2="42.869" gradientUnits="userSpaceOnUse">
<stop stop-color="#6C78F8"/>
<stop offset="0.08" stop-color="#6E7AF8"/>
<stop offset="0.55" stop-color="#7B85FD"/>
<stop offset="1" stop-color="#8089FF"/>
</linearGradient>
<linearGradient id="paint16_linear_23035_33219" x1="73.3054" y1="30.3145" x2="106.089" y2="97.6835" gradientUnits="userSpaceOnUse">
<stop offset="0.26" stop-color="#FF78B8"/>
<stop offset="0.39" stop-color="#E474C1"/>
<stop offset="0.65" stop-color="#A06DD8"/>
<stop offset="0.9" stop-color="#5865F1"/>
</linearGradient>
<clipPath id="clip0_23035_33219">
<rect width="185" height="140" fill="white"/>
</clipPath>
</defs>
</svg>
